<?xml version="1.0" standalone="no"?>
<!DOCTYPE svg PUBLIC "-//W3C//DTD SVG 20010904//EN"
 "http://www.w3.org/TR/2001/REC-SVG-20010904/DTD/svg10.dtd">
<svg version="1.0" xmlns="http://www.w3.org/2000/svg"
 width="512.000000pt" height="512.000000pt" viewBox="0 0 512.000000 512.000000"
 preserveAspectRatio="xMidYMid meet">
<metadata>
Created by potrace 1.11, written by Peter Selinger 2001-2013
</metadata>
<g transform="translate(0.000000,512.000000) scale(0.100000,-0.100000)"
fill="#000000" stroke="none">
<path d="M118 5091 l-32 -28 1 -1479 c0 -1321 3 -1630 18 -1699 2 -11 7 -36 9
-55 37 -262 166 -599 319 -830 64 -98 117 -173 126 -180 3 -3 24 -25 45 -50
66 -77 155 -168 214 -219 32 -27 71 -62 87 -76 49 -43 275 -190 350 -228 95
-48 195 -93 225 -102 14 -4 39 -13 55 -20 51 -21 167 -54 266 -75 205 -44 280
-48 794 -45 270 1 499 4 510 7 11 3 45 9 75 13 30 4 63 9 73 11 41 9 65 14
117 25 86 18 281 85 377 130 140 65 146 69 178 89 17 10 42 26 57 34 45 24
212 142 231 164 19 21 25 62 13 98 -5 16 7 33 57 80 62 58 65 59 95 47 22 -9
39 -10 60 -2 37 13 143 140 237 284 202 309 311 621 351 1010 4 33 7 732 8
1554 1 1631 4 1539 -57 1561 -21 7 -205 10 -560 10 l-529 -1 -29 -29 -29 -28
-1 -1464 c-1 -805 -2 -1476 -4 -1493 -16 -183 -88 -379 -187 -508 -112 -146
-291 -281 -433 -327 -22 -7 -44 -15 -50 -19 -5 -3 -14 -6 -20 -7 -5 -1 -46 -9
-90 -19 -154 -32 -358 -17 -510 38 -300 108 -530 362 -610 672 -7 28 -16 68
-21 90 -4 22 -9 710 -10 1530 -1 820 -2 1495 -3 1501 -1 6 -13 23 -27 37 l-26
27 -844 0 -843 0 -33 -29z"/>
</g>
</svg>
