<svg width="21" height="18" viewBox="0 0 21 18" fill="none" xmlns="http://www.w3.org/2000/svg">
<path d="M10.4956 3.95934C10.4956 3.95934 11.358 1.28649 18.7449 1.00514C18.8951 0.990839 19.0467 1.00645 19.1908 1.05106C19.335 1.09568 19.4689 1.16842 19.5848 1.26508C19.7007 1.36175 19.7963 1.48042 19.866 1.61424C19.9358 1.74806 19.9784 1.89438 19.9913 2.04474V13.0175C19.9637 13.3085 19.8252 13.5777 19.6043 13.7692C19.3835 13.9607 19.0973 14.0598 18.8054 14.0458C11.3706 14.3089 10.4956 17 10.4956 17V3.95934C10.4956 3.95934 9.63328 1.28649 2.24639 1.00514C2.09615 0.990839 1.94458 1.00645 1.80041 1.05106C1.65624 1.09568 1.52234 1.16842 1.40645 1.26508C1.29056 1.36175 1.19497 1.48042 1.12521 1.61424C1.05544 1.74806 1.01289 1.89438 1 2.04474V13.0175C1.02752 13.3085 1.1661 13.5777 1.38695 13.7692C1.60779 13.9607 1.89392 14.0598 2.1859 14.0458C9.62062 14.3089 10.4956 17 10.4956 17" stroke="#1A1A1A" stroke-width="1.5" stroke-linecap="round" stroke-linejoin="round"/>
</svg>
