<svg width="25" height="23" viewBox="0 0 25 23" fill="none" xmlns="http://www.w3.org/2000/svg">
<path d="M8.46036 20.5034C8.32855 20.5034 8.19971 20.5425 8.09012 20.6157C7.98053 20.689 7.89511 20.793 7.84467 20.9148C7.79423 21.0366 7.78104 21.1706 7.80675 21.2998C7.83246 21.4291 7.89593 21.5479 7.98913 21.641C8.08233 21.7342 8.20107 21.7977 8.33034 21.8234C8.45962 21.8491 8.59361 21.8359 8.71538 21.7855C8.83715 21.7351 8.94123 21.6497 9.01445 21.5401C9.08768 21.4305 9.12676 21.3016 9.12676 21.1698C9.12676 20.9931 9.05655 20.8236 8.93158 20.6986C8.8066 20.5736 8.6371 20.5034 8.46036 20.5034" fill="#1A1A1A"/>
<path d="M8.46036 20.5034C8.32855 20.5034 8.19971 20.5425 8.09012 20.6157C7.98053 20.689 7.89511 20.793 7.84467 20.9148C7.79423 21.0366 7.78104 21.1706 7.80675 21.2998C7.83246 21.4291 7.89593 21.5479 7.98913 21.641C8.08233 21.7342 8.20107 21.7977 8.33034 21.8234C8.45962 21.8491 8.59361 21.8359 8.71538 21.7855C8.83715 21.7351 8.94123 21.6497 9.01445 21.5401C9.08768 21.4305 9.12676 21.3016 9.12676 21.1698C9.12676 20.9931 9.05655 20.8236 8.93158 20.6986C8.8066 20.5736 8.6371 20.5034 8.46036 20.5034" stroke="#1A1A1A" stroke-width="2.19884" stroke-linejoin="round"/>
<path d="M15.1254 20.5034C14.9936 20.5034 14.8647 20.5425 14.7552 20.6157C14.6456 20.689 14.5602 20.793 14.5097 20.9148C14.4593 21.0366 14.4461 21.1706 14.4718 21.2998C14.4975 21.4291 14.561 21.5479 14.6542 21.641C14.7474 21.7342 14.8661 21.7977 14.9954 21.8234C15.1247 21.8491 15.2586 21.8359 15.3804 21.7855C15.5022 21.7351 15.6063 21.6497 15.6795 21.5401C15.7527 21.4305 15.7918 21.3016 15.7918 21.1698C15.7918 20.9931 15.7216 20.8236 15.5966 20.6986C15.4716 20.5736 15.3021 20.5034 15.1254 20.5034Z" fill="#1A1A1A" stroke="#1A1A1A" stroke-width="2.19884" stroke-linejoin="round"/>
<path d="M23.302 1L17.0544 16.5049H6.20057L2 6.53251H21.0021" stroke="#1A1A1A" stroke-width="2.19884"/>
<circle cx="8.46089" cy="21.1699" r="0.863772" fill="#1A1A1A" stroke="#1A1A1A" stroke-width="1.22158"/>
<circle cx="15.1982" cy="21.1694" r="1.09942" fill="#1A1A1A" stroke="#1A1A1A" stroke-width="0.414435"/>
</svg>
