<svg width="80" height="80" viewBox="0 0 80 80" fill="none" xmlns="http://www.w3.org/2000/svg">
<g clip-path="url(#clip0)">
<path d="M80.0488 -0.251953H0.0488281V79.748H80.0488V-0.251953Z" fill="#1DA1F2"/>
<path d="M46.7737 23.4643V23.457H48.6487L49.3338 23.5944C49.7905 23.6837 50.2052 23.8006 50.5777 23.9452C50.9503 24.0899 51.3109 24.2586 51.6594 24.4515C52.008 24.6443 52.3241 24.8408 52.6078 25.0409C52.889 25.2386 53.1414 25.4484 53.365 25.6701C53.5861 25.8944 53.931 25.9522 54.3998 25.8437C54.8685 25.7352 55.3733 25.5846 55.9141 25.3917C56.455 25.1988 56.9899 24.9819 57.5187 24.7408C58.0475 24.4997 58.3696 24.3466 58.485 24.2815C58.598 24.214 58.6581 24.1779 58.6653 24.173L58.6725 24.1622L58.7085 24.1441L58.7446 24.126L58.7807 24.1079L58.8167 24.0899L58.8239 24.079L58.8347 24.0718L58.8456 24.0646L58.8528 24.0537L58.8888 24.0429L58.9249 24.0356L58.9177 24.0899L58.9069 24.1441L58.8888 24.1984L58.8708 24.2526L58.8528 24.2888L58.8347 24.3249L58.8167 24.3792C58.8047 24.4153 58.7927 24.4635 58.7807 24.5238C58.7687 24.5841 58.6545 24.8251 58.4381 25.2471C58.2218 25.669 57.9514 26.0969 57.6268 26.5308C57.3023 26.9647 57.0115 27.2926 56.7543 27.5144C56.4947 27.7386 56.3228 27.8953 56.2387 27.9845C56.1545 28.0761 56.0524 28.1605 55.9322 28.2377L55.7519 28.357L55.7158 28.3751L55.6798 28.3931L55.6726 28.404L55.6617 28.4112L55.6509 28.4185L55.6437 28.4293L55.6077 28.4474L55.5716 28.4655L55.5644 28.4763L55.5536 28.4836L55.5428 28.4908L55.5355 28.5016L55.5284 28.5125L55.5175 28.5197L55.5067 28.5269L55.4995 28.5378H55.6798L56.6894 28.3208C57.3624 28.1762 58.0054 28.0014 58.6184 27.7965L59.5919 27.471L59.7001 27.4349L59.7542 27.4168L59.7902 27.3987L59.8263 27.3806L59.8624 27.3625L59.8984 27.3444L59.9705 27.3336L60.0426 27.3264V27.3987L60.0246 27.4059L60.0066 27.4168L59.9994 27.4276L59.9886 27.4349L59.9777 27.4421L59.9705 27.4529L59.9634 27.4638L59.9525 27.471L59.9417 27.4782L59.9345 27.4891L59.9273 27.4999L59.9165 27.5072L59.8984 27.5433L59.8804 27.5795L59.8696 27.5867C59.8648 27.594 59.7121 27.7989 59.4117 28.2015C59.1112 28.6065 58.9489 28.8114 58.9249 28.8162C58.9009 28.8235 58.8672 28.8596 58.8239 28.9247C58.7831 28.9922 58.5283 29.261 58.0595 29.7311C57.5908 30.2013 57.1317 30.6195 56.6822 30.986C56.2303 31.3548 56.0019 31.808 55.9971 32.3457C55.9899 32.8809 55.9622 33.486 55.9141 34.161C55.8661 34.836 55.7759 35.5653 55.6437 36.3488C55.5115 37.1323 55.3072 38.0183 55.0308 39.0067C54.7543 39.9951 54.4178 40.9595 54.0212 41.8997C53.6245 42.8399 53.2099 43.6836 52.7772 44.431C52.3445 45.1784 51.9479 45.8112 51.5873 46.3295C51.2268 46.8478 50.8602 47.336 50.4876 47.7941C50.115 48.2521 49.6439 48.7681 49.0742 49.3418C48.5021 49.9132 48.1896 50.2266 48.1367 50.282C48.0815 50.3351 47.8459 50.5328 47.43 50.8751C47.0166 51.2198 46.5718 51.5645 46.0959 51.9093C45.6223 52.2517 45.1872 52.5373 44.7906 52.7664C44.394 52.9954 43.9157 53.2569 43.3556 53.5511C42.7979 53.8476 42.1945 54.1224 41.5455 54.3756C40.8965 54.6287 40.2114 54.8638 39.4903 55.0807C38.7691 55.2977 38.0721 55.4665 37.399 55.587C36.7259 55.7075 35.9627 55.81 35.1094 55.8944L33.8294 56.0209V56.039H31.4857V56.0209L31.1792 56.0029C30.9749 55.9908 30.8066 55.9787 30.6744 55.9667C30.5422 55.9547 30.0434 55.8883 29.178 55.7678C28.3127 55.6473 27.6336 55.5267 27.1408 55.4062C26.6481 55.2857 25.9149 55.0566 24.9414 54.7191C23.9678 54.3816 23.1349 54.0405 22.4426 53.6957C21.7527 53.3534 21.3201 53.1364 21.1446 53.0448C20.9715 52.9556 20.7768 52.8447 20.5605 52.7121L20.2359 52.5132L20.2288 52.5024L20.2179 52.4951L20.2071 52.4879L20.1999 52.4771L20.1638 52.459L20.1278 52.4409L20.1206 52.4301L20.1097 52.4228L20.0989 52.4156L20.0917 52.4047L20.0845 52.3939L20.0737 52.3867H20.0557V52.3143L20.0917 52.3216L20.1278 52.3324L20.29 52.3505C20.3982 52.3625 20.6927 52.3806 21.1734 52.4047C21.6542 52.4289 22.165 52.4289 22.7058 52.4047C23.2467 52.3806 23.7996 52.3264 24.3645 52.242C24.9294 52.1576 25.5964 52.013 26.3656 51.8081C27.1348 51.6031 27.8416 51.3597 28.4858 51.0776C29.1276 50.7931 29.5843 50.581 29.8559 50.4411C30.1251 50.3037 30.5362 50.0482 31.089 49.6745L31.9183 49.114L31.9256 49.1031L31.9364 49.0959L31.9472 49.0887L31.9544 49.0778L31.9616 49.067L31.9724 49.0597L31.9833 49.0525L31.9905 49.0417L32.0265 49.0308L32.0626 49.0236L32.0698 48.9874L32.0806 48.9513L32.0915 48.944L32.0986 48.9332L31.8102 48.9151C31.6179 48.9031 31.4316 48.891 31.2513 48.8789C31.071 48.8669 30.7886 48.8127 30.404 48.7162C30.0194 48.6198 29.6047 48.4751 29.16 48.2823C28.7153 48.0894 28.2826 47.8604 27.862 47.5952C27.4413 47.33 27.1372 47.1094 26.9497 46.9334C26.7646 46.7598 26.5243 46.5139 26.2286 46.1957C25.9353 45.8751 25.6805 45.546 25.4642 45.2085C25.2478 44.871 25.0411 44.4816 24.844 44.0405L24.5447 43.3823L24.5267 43.3281L24.5087 43.2738L24.4979 43.2377L24.4906 43.2015L24.5447 43.2087L24.5988 43.2196L24.9954 43.2738C25.2599 43.31 25.6745 43.322 26.2394 43.31C26.8043 43.2979 27.1949 43.2738 27.4112 43.2377C27.6276 43.2015 27.7598 43.1774 27.8079 43.1653L27.88 43.1473L27.9701 43.1292L28.0603 43.1111L28.0675 43.1002L28.0783 43.093L28.0892 43.0858L28.0963 43.0749L28.0242 43.0569L27.9521 43.0388L27.88 43.0207L27.8079 43.0026L27.7358 42.9845C27.6877 42.9725 27.6036 42.9484 27.4834 42.9122C27.3632 42.876 27.0387 42.7434 26.5098 42.5144C25.981 42.2854 25.5603 42.0624 25.2478 41.8454C24.9346 41.6278 24.6359 41.3898 24.3536 41.133C24.0724 40.8727 23.7635 40.5376 23.427 40.1277C23.0905 39.7179 22.79 39.2418 22.5256 38.6993C22.2611 38.1569 22.0628 37.6386 21.9306 37.1444C21.7989 36.653 21.712 36.1507 21.671 35.6436L21.6061 34.8842L21.6422 34.8915L21.6782 34.9023L21.7143 34.9204L21.7503 34.9385L21.7864 34.9566L21.8224 34.9746L22.3813 35.2278C22.7539 35.3965 23.2167 35.5412 23.7695 35.6617C24.3224 35.7822 24.6529 35.8486 24.7611 35.8606L24.9233 35.8787H25.2478L25.2407 35.8678L25.2298 35.8606L25.219 35.8534L25.2118 35.8425L25.2046 35.8317L25.1938 35.8244L25.1829 35.8172L25.1757 35.8064L25.1397 35.7883L25.1036 35.7702L25.0964 35.7594L25.0856 35.7521L25.0748 35.7449L25.0676 35.734L25.0315 35.716L24.9954 35.6979L24.9883 35.687C24.9811 35.6822 24.8777 35.6051 24.6781 35.4556C24.481 35.3037 24.2743 35.1072 24.058 34.8662C23.8416 34.6251 23.6253 34.3719 23.4089 34.1067C23.1922 33.841 22.9992 33.5566 22.832 33.2569C22.6638 32.9556 22.4859 32.5722 22.2984 32.107C22.1133 31.6441 21.9727 31.1776 21.8765 30.7075C21.7804 30.2374 21.7263 29.7733 21.7143 29.3153C21.7023 28.8572 21.7143 28.4655 21.7503 28.14C21.7864 27.8146 21.8585 27.4469 21.9667 27.0371C22.0748 26.6272 22.2311 26.1933 22.4354 25.7352L22.7419 25.0482L22.7599 24.9939L22.778 24.9397L22.7888 24.9324L22.796 24.9216L22.8032 24.9107L22.814 24.9035L22.8249 24.9107L22.832 24.9216L22.8392 24.9324L22.8501 24.9397L22.8609 24.9469L22.8681 24.9578L22.8753 24.9686L22.8861 24.9758L22.9042 25.012L22.9222 25.0482L22.933 25.0554L22.9402 25.0662L23.427 25.6087C23.7515 25.9703 24.1361 26.3741 24.5808 26.8201C25.0255 27.2661 25.2719 27.4975 25.32 27.5144C25.3681 27.5337 25.4281 27.5891 25.5002 27.6808C25.5724 27.77 25.8127 27.9833 26.2214 28.3208C26.63 28.6583 27.1649 29.0501 27.8259 29.4961C28.487 29.9421 29.2201 30.3821 30.0254 30.816C30.8307 31.2499 31.696 31.6417 32.6215 31.9913C33.5469 32.3408 34.1959 32.5699 34.5685 32.6783C34.9411 32.7868 35.5781 32.9254 36.4795 33.0942C37.381 33.263 38.06 33.3715 38.5167 33.4197C38.9735 33.4679 39.286 33.4956 39.4542 33.5028L39.7066 33.5101L39.6994 33.4558L39.6886 33.4016L39.6165 32.9496C39.5684 32.6482 39.5444 32.2263 39.5444 31.6839C39.5444 31.1415 39.5864 30.6412 39.6706 30.1832C39.7547 29.7251 39.8809 29.261 40.0492 28.7909C40.2174 28.3208 40.3821 27.9435 40.5431 27.6591C40.7066 27.377 40.9205 27.0552 41.1849 26.6935C41.4494 26.3319 41.7919 25.9583 42.2126 25.5725C42.6332 25.1868 43.114 24.8432 43.6548 24.5419C44.1957 24.2406 44.6945 24.0115 45.1512 23.8548C45.6079 23.6981 45.9925 23.5956 46.305 23.5474C46.6175 23.4992 46.7737 23.4715 46.7737 23.4643Z" fill="white"/>
</g>
<defs>
<clipPath id="clip0">
<rect width="80" height="80" fill="white"/>
</clipPath>
</defs>
</svg>
