<svg width="80" height="80" viewBox="0 0 80 80" fill="none" xmlns="http://www.w3.org/2000/svg">
<g clip-path="url(#clip0)">
<path d="M79.9561 -0.251953H-0.0439453V79.748H79.9561V-0.251953Z" fill="#FE012B"/>
<path d="M41.1656 58.9962L29.9635 58.7868C26.3365 58.7138 22.7005 58.8595 19.1447 58.1036C13.7354 56.9744 13.3522 51.4373 12.9512 46.7927C12.3986 40.2631 12.6125 33.6149 13.6552 27.1398C14.2439 23.5065 16.5604 21.3385 20.1428 21.1026C32.236 20.2464 44.4097 20.3479 56.4761 20.7473C57.7505 20.784 59.0336 20.9841 60.2902 21.2119C66.493 22.323 66.6442 28.5977 67.0463 33.8799C67.4473 39.2165 67.278 44.5806 66.5116 49.8809C65.8967 54.2694 64.7202 57.9496 59.7554 58.3049C53.5348 58.7695 47.457 59.1435 41.2189 59.0244C41.2192 58.9962 41.1834 58.9962 41.1656 58.9962ZM34.5799 47.8857C39.2676 45.1352 43.8659 42.4305 48.5268 39.6984C43.8303 36.9479 39.2408 34.2433 34.5799 31.5112V47.8857Z" fill="white"/>
</g>
<defs>
<clipPath id="clip0">
<rect width="80" height="80" fill="white"/>
</clipPath>
</defs>
</svg>
