<?xml version="1.0" standalone="no"?>
<!DOCTYPE svg PUBLIC "-//W3C//DTD SVG 20010904//EN"
 "http://www.w3.org/TR/2001/REC-SVG-20010904/DTD/svg10.dtd">
<svg version="1.0" xmlns="http://www.w3.org/2000/svg"
 width="512.000000pt" height="512.000000pt" viewBox="0 0 512.000000 512.000000"
 preserveAspectRatio="xMidYMid meet">
<metadata>
Created by potrace 1.11, written by Peter Selinger 2001-2013
</metadata>
<g transform="translate(0.000000,512.000000) scale(0.100000,-0.100000)"
fill="#000000" stroke="none">
<path d="M463 3473 c2 -907 7 -1675 10 -1708 22 -213 24 -231 43 -340 35 -201
78 -343 154 -500 59 -122 70 -139 144 -240 59 -80 189 -214 262 -270 210 -162
520 -304 744 -341 14 -2 45 -9 70 -14 46 -10 59 -12 195 -29 280 -36 718 -36
1005 -1 571 71 1028 325 1275 709 102 158 199 414 229 601 3 19 7 44 10 55 3
17 16 100 21 145 1 8 5 49 9 90 4 41 10 95 13 120 3 25 7 793 10 1708 l4 1662
-644 0 -645 0 -2 -1612 c0 -887 -2 -1638 -4 -1668 -10 -176 -39 -319 -83 -410
-39 -79 -154 -190 -235 -228 -69 -32 -197 -67 -288 -79 -95 -12 -310 -6 -403
11 -181 34 -304 93 -406 195 -118 118 -170 248 -197 496 -4 33 -6 788 -6 1678
l1 1617 -645 0 -645 0 4 -1647z"/>
</g>
</svg>
