<svg width="109" height="17" viewBox="0 0 109 17" fill="none" xmlns="http://www.w3.org/2000/svg">
<g clip-path="url(#clip0)">
<path d="M0 16.7734H2.89844V11.3672H5.96094C9.65625 11.3672 11.6406 9.14844 11.6406 6.07031C11.6406 3.01563 9.67969 0.773438 6 0.773438H0V16.7734ZM2.89844 8.98438V3.19531H5.55469C7.72656 3.19531 8.6875 4.36719 8.6875 6.07031C8.6875 7.77344 7.72656 8.98438 5.57031 8.98438H2.89844Z" fill="#1A1A1A"/>
<path d="M19.0957 17.0078C22.6113 17.0078 24.8457 14.5312 24.8457 10.8203C24.8457 7.10156 22.6113 4.61719 19.0957 4.61719C15.5801 4.61719 13.3457 7.10156 13.3457 10.8203C13.3457 14.5312 15.5801 17.0078 19.0957 17.0078ZM19.1113 14.7422C17.166 14.7422 16.2129 13.0078 16.2129 10.8125C16.2129 8.61719 17.166 6.85938 19.1113 6.85938C21.0254 6.85938 21.9785 8.61719 21.9785 10.8125C21.9785 13.0078 21.0254 14.7422 19.1113 14.7422Z" fill="#1A1A1A"/>
<path d="M27.2461 16.7734H30.0742V9.71875C30.0742 8.19531 31.2227 7.11719 32.7773 7.11719C33.2539 7.11719 33.8477 7.20312 34.0898 7.28125V4.67969C33.832 4.63281 33.3867 4.60156 33.0742 4.60156C31.6992 4.60156 30.5508 5.38281 30.1133 6.77344H29.9883V4.77344H27.2461V16.7734Z" fill="#1A1A1A"/>
<path d="M42.6055 4.77344H40.2383V1.89844H37.4102V4.77344H35.707V6.96094H37.4102V13.6328C37.3945 15.8906 39.0352 17 41.1602 16.9375C41.9648 16.9141 42.5195 16.7578 42.8242 16.6562L42.3477 14.4453C42.1914 14.4844 41.8711 14.5547 41.5195 14.5547C40.8086 14.5547 40.2383 14.3047 40.2383 13.1641V6.96094H42.6055V4.77344Z" fill="#1A1A1A"/>
<path d="M51.0488 4.77344H48.5566V3.82813C48.5566 2.89063 48.9473 2.36719 50.002 2.36719C50.4473 2.36719 50.8223 2.46875 51.0566 2.53906L51.627 0.351563C51.2598 0.226563 50.4551 0.023437 49.4785 0.023437C47.3926 0.023437 45.7285 1.21875 45.7285 3.64062V4.77344H43.9551V6.96094H45.7285V16.7734H48.5566V6.96094H51.0488V4.77344Z" fill="#1A1A1A"/>
<path d="M58.0469 17.0078C61.5625 17.0078 63.7969 14.5312 63.7969 10.8203C63.7969 7.10156 61.5625 4.61719 58.0469 4.61719C54.5312 4.61719 52.2969 7.10156 52.2969 10.8203C52.2969 14.5312 54.5312 17.0078 58.0469 17.0078ZM58.0625 14.7422C56.1172 14.7422 55.1641 13.0078 55.1641 10.8125C55.1641 8.61719 56.1172 6.85938 58.0625 6.85938C59.9766 6.85938 60.9297 8.61719 60.9297 10.8125C60.9297 13.0078 59.9766 14.7422 58.0625 14.7422Z" fill="#1A1A1A"/>
<path d="M69.0254 0.773438H66.1973V16.7734H69.0254V0.773438Z" fill="#1A1A1A"/>
<path d="M71.9336 16.7734H74.7617V4.77344H71.9336V16.7734ZM73.3555 3.07031C74.2539 3.07031 74.9883 2.38281 74.9883 1.53906C74.9883 0.6875 74.2539 0 73.3555 0C72.4492 0 71.7148 0.6875 71.7148 1.53906C71.7148 2.38281 72.4492 3.07031 73.3555 3.07031Z" fill="#1A1A1A"/>
<path d="M82.9043 17.0078C86.4199 17.0078 88.6543 14.5312 88.6543 10.8203C88.6543 7.10156 86.4199 4.61719 82.9043 4.61719C79.3887 4.61719 77.1543 7.10156 77.1543 10.8203C77.1543 14.5312 79.3887 17.0078 82.9043 17.0078ZM82.9199 14.7422C80.9746 14.7422 80.0215 13.0078 80.0215 10.8125C80.0215 8.61719 80.9746 6.85938 82.9199 6.85938C84.834 6.85938 85.7871 8.61719 85.7871 10.8125C85.7871 13.0078 84.834 14.7422 82.9199 14.7422Z" fill="#1A1A1A"/>
<path d="M96.3398 16.7734H108.184V14.3438H99.9414L108.137 2.57812V0.773438H96.293V3.20313H104.543L96.3398 14.9688V16.7734Z" fill="#1A1A1A"/>
</g>
<defs>
<clipPath id="clip0">
<rect width="109" height="17" fill="white"/>
</clipPath>
</defs>
</svg>
